:FULLY-SPECIFIED
:FORCE-ALL-JOINTS-BE-3DOF
:DEGREES
612
root -4.29494 15.7669 -40.5009 -3.18733 -74.3924 9.37125
lfemur -7.03101 13.2097 -15.7261
ltibia 42.7874 -0 0
lfoot -21.4527 28.7554 0.0113976
ltoes -23.524 0 0
rfemur -44.1367 -32.2454 18.3317
rtibia 81.8339 -0 0
rfoot -13.4782 -18.2247 0.00606542
rtoes 3.18246 -0 0
lowerback 11.4232 4.97864 -6.50769
upperback -2.37587 5.56227 -1.24135
thorax -9.48395 2.98731 1.20991
lowerneck 2.04984 -10.9127 -11.8377
upperneck -1.01374 -14.8661 11.756
head 1.14395 -7.48716 5.10658
lclavicle -1.2178e-013 -4.77083e-015 0
lhumerus -72.4246 -24.5553 105.253
lradius 102.486 -0 0
lwrist 56.1061 0 0
lhand 8.21159 56.3471 0.236966
lfingers 7.12502 -0 0
lthumb 33.4189 83.1327 0.194775
rclavicle -1.2178e-013 -4.77083e-015 0
rhumerus 26.2053 26.3274 -44.3126
rradius 113.141 -0 0
rwrist -23.2488 0 0
rhand -14.901 -28.5408 0.0551233
rfingers 7.12502 -0 0
rthumb 11.2624 -58.2303 0.0418778
613
root -4.31769 15.7632 -40.4793 -2.93261 -74.813 9.31482
lfemur -6.96431 13.3023 -15.7964
ltibia 42.8266 -0 0
lfoot -21.558 29.1296 0.0234426
ltoes -23.6176 0 0
rfemur -43.7661 -32.5625 18.838
rtibia 81.7354 -0 0
rfoot -14.3002 -18.9802 0.0232464
rtoes 2.60356 -0 0
lowerback 11.1245 5.00501 -6.55045
upperback -2.48379 5.60878 -1.28345
thorax -9.43127 3.01377 1.19824
lowerneck 1.93879 -10.8562 -11.7976
upperneck -0.920167 -14.7857 11.8037
head 1.17988 -7.44406 5.10907
lclavicle -1.2178e-013 -4.77083e-015 0
lhumerus -72.7706 -24.4814 105.351
lradius 102.461 -0 0
lwrist 55.9502 0 0
lhand 7.01495 55.7584 0.394681
lfingers 7.12502 -0 0
lthumb 32.2809 82.7269 0.331984
rclavicle -1.2178e-013 -4.77083e-015 0
rhumerus 26.3159 25.3455 -44.5318
rradius 112.235 -0 0
rwrist -23.5679 0 0
rhand -15.7363 -28.5637 0.0759558
rfingers 7.12502 -0 0
rthumb 10.4574 -58.2962 0.0578128
614
root -4.34044 15.7594 -40.4578 -2.7021 -75.2612 9.30957
lfemur -6.8151 13.3996 -15.8548
ltibia 42.7979 -0 0
lfoot -21.6737 29.5523 0.0390871
ltoes -23.7461 0 0
rfemur -43.3705 -32.8314 19.3166
rtibia 81.4459 -0 0
rfoot -15.1373 -19.7518 0.0463024
rtoes 1.95325 -0 0
lowerback 10.7943 5.03335 -6.60258
upperback -2.59814 5.65892 -1.32973
thorax -9.36787 3.04263 1.18893
lowerneck 1.82038 -10.7987 -11.7555
upperneck -0.833577 -14.7031 11.8562
head 1.21453 -7.39956 5.11261
lclavicle -1.2178e-013 -4.77083e-015 0
lhumerus -73.1945 -24.3686 105.466
lradius 102.426 -0 0
lwrist 55.8244 0 0
lhand 5.63187 55.1356 0.565923
lfingers 7.12502 -0 0
lthumb 30.9676 82.3201 0.486164
rclavicle -1.2178e-013 -4.77083e-015 0
rhumerus 26.3704 24.3945 -44.7735
rradius 111.062 -0 0
rwrist -23.8847 0 0
rhand -16.5781 -28.6033 0.0927287
rfingers 7.12502 -0 0
rthumb 9.64576 -58.3731 0.0707853
615
root -4.36319 15.7557 -40.4362 -2.48971 -75.7338 9.34473
lfemur -6.6015 13.5002 -15.9029
ltibia 42.7166 -0 0
lfoot -21.7962 30.0126 0.0577821
ltoes -23.9026 0 0
rfemur -42.9498 -33.0546 19.7684
rtibia 80.9835 -0 0
rfoot -15.985 -20.5354 0.0728556
rtoes 1.24064 -0 0
lowerback 10.4388 5.06286 -6.66057
upperback -2.71752 5.7119 -1.37867
thorax -9.29553 3.07332 1.18142
lowerneck 1.69554 -10.7397 -11.7111
upperneck -0.753715 -14.6179 11.912
head 1.24771 -7.35347 5.11677
lclavicle -1.2178e-013 -4.77083e-015 0
lhumerus -73.6751 -24.2243 105.591
lradius 102.385 -0 0
lwrist 55.7159 0 0
lhand 4.0938 54.4793 0.741681
lfingers 7.12502 -0 0
lthumb 29.5086 81.9068 0.650399
rclavicle -1.2178e-013 -4.77083e-015 0
rhumerus 26.379 23.4742 -45.033
rradius 109.655 -0 0
rwrist -24.205 0 0
rhand -17.4231 -28.6605 0.105722
rfingers 7.12502 -0 0
rthumb 8.83076 -58.4625 0.0810296
616
root -4.38593 15.752 -40.4146 -2.28863 -76.2273 9.40885
lfemur -6.34168 13.6027 -15.9423
ltibia 42.598 -0 0
lfoot -21.9217 30.4994 0.0788906
ltoes -24.0803 0 0
rfemur -42.5041 -33.2343 20.1946
rtibia 80.3665 -0 0
rfoot -16.8386 -21.3264 0.100777
rtoes 0.47482 -0 0
lowerback 10.0641 5.09279 -6.72089
upperback -2.84053 5.76695 -1.42876
thorax -9.21602 3.10525 1.17513
lowerneck 1.56518 -10.679 -11.6644
upperneck -0.680327 -14.5296 11.9694
head 1.27926 -7.30563 5.12112
lclavicle -1.2178e-013 -4.77083e-015 0
lhumerus -74.1915 -24.0558 105.724
lradius 102.341 -0 0
lwrist 55.6122 0 0
lhand 2.43231 53.7909 0.913456
lfingers 7.12502 -0 0
lthumb 27.9336 81.4817 0.817917
rclavicle -1.2178e-013 -4.77083e-015 0
rhumerus 26.3515 22.5841 -45.3061
rradius 108.045 -0 0
rwrist -24.5345 0 0
rhand -18.2677 -28.7362 0.115187
rfingers 7.12502 -0 0
rthumb 8.0158 -58.5658 0.0887469
